<!-- src/design-system/food-pattern.svg -->
<svg width="260" height="260" viewBox="0 0 260 260" xmlns="http://www.w3.org/2000/svg">
  <defs>
    <style>
      .l {
        fill: none;
        stroke: #ff4b4b;
        stroke-width: 1.2;
        stroke-linecap: round;
        stroke-linejoin: round;
        opacity: 0.18;
      }
      .d {
        fill: #ffe2e2;
        opacity: 0.14;
      }
    </style>
  </defs>

  <!-- Plato con comida -->
  <circle class="l" cx="46" cy="52" r="18"/>
  <circle class="l" cx="46" cy="52" r="7"/>
  <path class="l" d="M38 50c2 3 4 4 8 4 4 0 6-1 8-4"/>

  <!-- Taza -->
  <rect class="l" x="170" y="32" width="26" height="16" rx="4"/>
  <path class="l" d="M196 36c6 0 9 3 9 7s-2 7-6 7"/>

  <!-- Rebanada de pizza -->
  <path class="l" d="M28 168l34-40 34 80z"/>
  <circle class="l" cx="56" cy="182" r="3"/>
  <circle class="l" cx="70" cy="196" r="3"/>
  <circle class="l" cx="64" cy="210" r="2.5"/>

  <!-- Pan -->
  <path class="l" d="M156 182c0-8 8-14 20-14s20 6 20 14v10h-40z"/>

  <!-- Corazón-tomate -->
  <path class="l" d="M122 104c4-6 11-6 15-1 4-5 11-5 15 1 4 7-2 14-15 22-13-8-19-15-15-22z"/>

  <!-- Hojas / hierbas -->
  <path class="l" d="M210 122c4-5 8-7 12-7-1 4-3 8-7 12"/>
  <path class="l" d="M18 112c3-4 6-6 9-6-1 3-2 6-6 9"/>

  <!-- Cubiertos -->
  <path class="l" d="M216 46v30"/>
  <path class="l" d="M208 46v20"/>
  <path class="l" d="M224 46v20"/>
  <path class="l" d="M204 76l14 18"/>

  <!-- Bollito -->
  <ellipse class="l" cx="134" cy="222" rx="18" ry="8"/>
  <path class="l" d="M118 220c4-8 28-8 32 0"/>

  <!-- Sombras suaves -->
  <circle class="d" cx="40" cy="34" r="10"/>
  <circle class="d" cx="190" cy="150" r="14"/>
  <circle class="d" cx="90" cy="210" r="9"/>
  <circle class="d" cx="220" cy="210" r="7"/>

  <!-- Puntos decorativos -->
  <circle class="l" cx="20" cy="24" r="1.5"/>
  <circle class="l" cx="132" cy="32" r="1.5"/>
  <circle class="l" cx="230" cy="96" r="1.5"/>
  <circle class="l" cx="70" cy="140" r="1.5"/>
  <circle class="l" cx="200" cy="232" r="1.5"/>
</svg>
